<?xml version="1.0" encoding="utf-8"?>
<!-- Generator: Adobe Illustrator 16.0.0, SVG Export Plug-In . SVG Version: 6.00 Build 0)  -->
<!DOCTYPE svg PUBLIC "-//W3C//DTD SVG 1.1//EN" "http://www.w3.org/Graphics/SVG/1.1/DTD/svg11.dtd">
<svg version="1.1" id="Calque_1" xmlns="http://www.w3.org/2000/svg" xmlns:xlink="http://www.w3.org/1999/xlink" x="0px" y="0px"
	 width="400px" height="400px" viewBox="0 0 400 400" enable-background="new 0 0 400 400" xml:space="preserve">
<g>
	
		<line fill="none" stroke="#333333" stroke-width="0.5" stroke-miterlimit="10" x1="261.299" y1="316.935" x2="138.3" y2="316.935"/>
	<g>
		<rect x="140.666" y="324.276" fill="none" width="114.943" height="22.218"/>
		<path fill="#333333" d="M142.26,339.708l6.332-8.675c0.62-0.832,0.886-1.619,0.886-2.567c0-1.966-1.107-3.285-3.033-3.285
			c-1.639,0-3.033,0.972-3.033,3.285h-1.129c0-2.452,1.572-4.326,4.163-4.326c2.524,0,4.162,1.735,4.162,4.326
			c0,1.226-0.288,2.082-1.084,3.169l-5.912,8.073h6.996v1.041h-8.347V339.708z"/>
		<path fill="#333333" d="M180.877,340.888c-2.413,0-4.14-1.827-4.14-4.396v-7.957c0-2.567,1.727-4.396,4.14-4.396
			c2.436,0,4.141,1.828,4.141,4.396v7.957C185.018,339.061,183.312,340.888,180.877,340.888z M180.877,325.181
			c-1.97,0-3.011,1.527-3.011,3.47v7.727c0,1.943,1.041,3.47,3.011,3.47c1.971,0,3.011-1.526,3.011-3.47v-7.727
			C183.888,326.708,182.848,325.181,180.877,325.181z"/>
		<path fill="#333333" d="M215.398,340.888c-2.414,0-4.141-1.827-4.141-4.396v-7.957c0-2.567,1.727-4.396,4.141-4.396
			c2.436,0,4.14,1.828,4.14,4.396v7.957C219.538,339.061,217.834,340.888,215.398,340.888z M215.398,325.181
			c-1.971,0-3.012,1.527-3.012,3.47v7.727c0,1.943,1.041,3.47,3.012,3.47c1.97,0,3.011-1.526,3.011-3.47v-7.727
			C218.409,326.708,217.368,325.181,215.398,325.181z"/>
		<path fill="#333333" d="M247.661,340.749l5.579-15.43h-5.978v2.591h-1.129v-3.631h8.258v1.04l-5.579,15.43H247.661z"/>
	</g>
	<g>
		<rect x="1.479" y="236.48" fill="none" width="396.639" height="75.082"/>
		<path fill="#333333" d="M153.729,239.593l-5.151,12.135h-1.288l-5.247-12.135v14.627h-1.288v-17.741h1.288l5.915,13.68
			l5.771-13.68h1.288v17.741h-1.288V239.593z"/>
		<path fill="#333333" d="M175.93,249.909h-7.918l-1.479,4.311h-1.383l6.249-17.741h1.145l6.249,17.741h-1.383L175.93,249.909z
			 M168.417,248.713h7.107l-3.554-10.44L168.417,248.713z"/>
		<path fill="#333333" d="M188.925,236.479h1.288v17.741h-1.288V236.479z"/>
		<path fill="#333333" d="M206.857,254.369c-2.504,0-4.102-0.723-5.651-2.342l0.906-0.947c1.526,1.595,2.79,2.093,4.817,2.093
			c2.694,0,4.364-1.345,4.364-3.662c0-1.072-0.286-1.919-0.93-2.492c-0.645-0.523-1.05-0.747-2.457-0.947l-1.979-0.323
			c-1.288-0.199-2.289-0.623-3.029-1.296c-0.882-0.772-1.335-1.869-1.335-3.265c0-2.99,2.003-4.858,5.271-4.858
			c2.099,0,3.435,0.598,4.89,1.918l-0.835,0.873c-1.002-0.997-2.123-1.646-4.126-1.646c-2.48,0-3.936,1.396-3.936,3.663
			c0,1.021,0.286,1.794,0.883,2.317c0.596,0.523,1.574,0.922,2.528,1.097l1.836,0.299c1.598,0.225,2.337,0.548,3.029,1.171
			c0.93,0.798,1.479,2.019,1.479,3.439C212.582,252.476,210.411,254.369,206.857,254.369z"/>
		<path fill="#333333" d="M233.162,252.55c-1.121,1.172-2.624,1.819-4.245,1.819c-1.622,0-3.125-0.647-4.246-1.819
			c-1.55-1.619-1.573-3.214-1.573-7.201c0-4.012,0.023-5.581,1.573-7.201c1.121-1.171,2.624-1.818,4.246-1.818
			c1.621,0,3.124,0.647,4.245,1.818c1.55,1.62,1.573,3.189,1.573,7.201C234.735,249.336,234.712,250.931,233.162,252.55z
			 M232.136,238.896c-0.858-0.897-2.003-1.37-3.219-1.37c-1.217,0-2.361,0.473-3.22,1.37c-1.217,1.271-1.312,2.666-1.312,6.453
			c0,3.788,0.096,5.184,1.312,6.454c0.858,0.897,2.003,1.37,3.22,1.37c1.216,0,2.36-0.473,3.219-1.37
			c1.217-1.271,1.312-2.666,1.312-6.454C233.448,241.562,233.353,240.166,232.136,238.896z"/>
		<path fill="#333333" d="M247.755,238.796v15.424h-1.288v-17.741h1.288l9.803,15.374v-15.374h1.287v17.741h-1.287L247.755,238.796z
			"/>
		<path fill="#333333" d="M72.254,276v6.229h9.575v4.414h-9.575v10.288h-4.736v-25.347h15.98V276H72.254z"/>
		<path fill="#333333" d="M97.837,296.932v-25.347h15.98V276h-11.244v5.944h9.575v4.414h-9.575v6.159h11.244v4.414H97.837z"/>
		<path fill="#333333" d="M141.547,296.932l-4.736-10.11h-3.408v10.11h-4.736v-25.347h9.506c4.94,0,7.871,3.524,7.871,7.761
			c0,3.56-2.078,5.768-4.429,6.657l5.417,10.929H141.547z M137.867,276h-4.464v6.692h4.464c2.078,0,3.441-1.389,3.441-3.347
			S139.945,276,137.867,276z"/>
		<path fill="#333333" d="M176.329,294.511c-1.601,1.673-3.884,2.421-6.405,2.421h-8.757v-25.347h8.757
			c2.521,0,4.804,0.748,6.405,2.421c2.726,2.848,2.454,6.337,2.454,10.146C178.783,287.961,179.055,291.663,176.329,294.511z
			 M173.024,277.566c-0.818-1.033-1.908-1.566-3.544-1.566h-3.578v16.518h3.578c1.636,0,2.726-0.534,3.544-1.566
			c0.886-1.14,1.022-2.955,1.022-6.8S173.91,278.705,173.024,277.566z"/>
		<path fill="#333333" d="M193.837,296.932v-25.347h4.736v25.347H193.837z"/>
		<path fill="#333333" d="M228.792,296.932l-9.608-15.557v15.557h-4.736v-25.347h4.225l9.609,15.521v-15.521h4.735v25.347H228.792z"
			/>
		<path fill="#333333" d="M262.689,296.932l-1.432-4.485h-8.62l-1.465,4.485h-4.941l8.825-25.347h3.714l8.859,25.347H262.689z
			 M257.033,279.062l-3.066,9.22h6.03L257.033,279.062z"/>
		<path fill="#333333" d="M295.188,296.932l-9.608-15.557v15.557h-4.736v-25.347h4.225l9.609,15.521v-15.521h4.735v25.347H295.188z"
			/>
		<path fill="#333333" d="M330.447,294.511c-1.602,1.673-3.884,2.421-6.405,2.421h-8.757v-25.347h8.757
			c2.521,0,4.804,0.748,6.405,2.421c2.727,2.848,2.453,6.337,2.453,10.146C332.9,287.961,333.174,291.663,330.447,294.511z
			 M327.143,277.566c-0.818-1.033-1.908-1.566-3.544-1.566h-3.577v16.518h3.577c1.636,0,2.726-0.534,3.544-1.566
			c0.886-1.14,1.022-2.955,1.022-6.8S328.028,278.705,327.143,277.566z"/>
	</g>
	<g>
		<g>
			<path fill="#333333" d="M259.552,205.24c-0.919,0-1.381-0.233-1.381-0.695c0-0.692,0.216-1.126,0.65-1.301
				c3.475-1.967,5.322-5.317,5.539-10.057c0.379-9.136-2.446-17.022-8.471-23.671c-5.537-6.014-12.028-11.448-19.463-16.302
				c-5.431-3.528-16.179-9.687-32.251-18.472c-28.013-15.26-47.637-30.119-58.875-44.569c-8.361-10.694-12.376-20.813-12.052-30.351
				c0.273-6.878,2.5-10.667,6.676-11.359c0.923,0,1.384,0.233,1.384,0.692c0,0.639-0.244,1.041-0.732,1.216
				c-3.476,2.023-5.293,5.405-5.457,10.146c-0.38,8.495,2.441,16.357,8.47,23.584c3.963,4.796,8.875,9.162,14.739,13.094
				c4.019,2.658,16.017,9.913,35.997,21.765l24.021,14.22c14.932,8.787,26.875,18.901,35.833,30.352
				c8.359,10.577,12.35,20.693,11.972,30.346C265.934,200.758,263.737,204.545,259.552,205.24z"/>
		</g>
		<g>
			<path fill="#333333" d="M142.166,134.484c0.083,0.042,0.3,0.241,0.655,0.601l2.406,2.584c7.097,7.54,10.64,13.111,10.64,16.716
				c0,1.883-0.473,3.426-1.424,4.629c-0.948,1.205-2.172,1.804-3.661,1.804c-1.524,0-3.166-0.755-4.929-2.28
				c-0.324-0.281-1.777-1.741-4.357-4.387c-3.256-3.36-5.389-5.044-6.393-5.044c-1.113,0-1.669,0.823-1.669,2.466
				c0,5.284,7.357,14.351,22.071,27.203c-0.11,0.801-0.164,1.901-0.164,3.304c0,1.642,0.053,3.042,0.164,4.202l-9.163-8.526
				c-6.026-5.568-9.72-8.348-11.078-8.348c-1.219,0-1.83,0.741-1.83,2.222c0,2.203,2.146,5.809,6.431,10.809
				c4.292,5.006,9.503,9.972,15.64,14.896c-0.11,0.919-0.164,2.103-0.164,3.539c0,1.564,0.053,2.927,0.164,4.091l-9.163-8.59
				c-6.298-5.928-10.193-8.893-11.685-8.893c-0.815,0-1.224,0.467-1.224,1.387c0,1.967,2.913,6.037,8.733,12.215
				c0.383,0.403,0.571,0.725,0.571,0.967c-0.026,0.158-0.108,0.239-0.244,0.239c-0.243,0-1.939-1.845-5.076-5.534
				c-3.061-3.609-4.593-6.398-4.593-8.362c0-1.283,0.412-2.383,1.241-3.308c0.827-0.922,1.812-1.382,2.953-1.382
				c1.575,0,3.759,1.18,6.554,3.544c-7.167-7.211-10.749-12.573-10.749-16.099c0-1.681,0.461-3.062,1.384-4.144
				c0.921-1.08,2.076-1.621,3.46-1.621c1.549,0,3.517,1.062,5.905,3.181c-7.167-7.603-10.749-13.31-10.749-17.114
				c0-1.722,0.501-3.173,1.503-4.354c1.005-1.18,2.228-1.771,3.667-1.771c1.683,0,3.65,0.982,5.903,2.944
				c0.029,0.041,1.764,1.761,5.213,5.163c1.955,1.963,3.447,2.944,4.48,2.944c1.112,0,1.668-0.824,1.668-2.468
				c0-3.125-3.428-8.297-10.278-15.514l-1.751-1.863l-0.9-1.087c-0.271-0.198-0.406-0.398-0.406-0.601
				C141.922,134.604,142.006,134.484,142.166,134.484z"/>
		</g>
		<g>
			<path fill="#333333" d="M257.43,118.735c-0.083-0.041-0.297-0.238-0.652-0.601l-2.407-2.587
				c-7.094-7.534-10.644-13.102-10.644-16.711c0-1.884,0.479-3.43,1.425-4.628c0.951-1.207,2.175-1.808,3.666-1.808
				c1.523,0,3.163,0.76,4.93,2.283c0.323,0.283,1.773,1.741,4.354,4.388c3.257,3.36,5.389,5.043,6.393,5.043
				c1.117,0,1.67-0.821,1.67-2.464c0-5.284-7.358-14.353-22.065-27.207c0.108-0.799,0.16-1.901,0.16-3.301
				c0-1.642-0.052-3.042-0.16-4.204l9.16,8.528c6.024,5.564,9.716,8.348,11.075,8.348c1.223,0,1.83-0.74,1.83-2.221
				c0-2.204-2.144-5.808-6.433-10.81c-4.29-5.005-9.505-9.968-15.633-14.894c0.108-0.925,0.16-2.103,0.16-3.546
				c0-1.56-0.052-2.921-0.16-4.083l9.16,8.589c6.294,5.926,10.191,8.889,11.684,8.889c0.817,0,1.222-0.463,1.222-1.384
				c0-1.967-2.911-6.038-8.733-12.219c-0.383-0.4-0.569-0.719-0.569-0.963c0.029-0.159,0.109-0.24,0.24-0.24
				c0.246,0,1.938,1.847,5.082,5.535c3.062,3.606,4.593,6.399,4.593,8.362c0,1.284-0.414,2.385-1.243,3.31
				c-0.827,0.922-1.814,1.384-2.955,1.384c-1.573,0-3.758-1.182-6.551-3.546c7.162,7.208,10.749,12.574,10.749,16.098
				c0,1.681-0.464,3.062-1.385,4.142c-0.927,1.082-2.079,1.621-3.464,1.621c-1.547,0-3.513-1.061-5.9-3.181
				c7.162,7.605,10.749,13.312,10.749,17.115c0,1.719-0.504,3.173-1.505,4.354c-1.009,1.18-2.228,1.771-3.667,1.771
				c-1.684,0-3.652-0.981-5.905-2.941c-0.026-0.042-1.762-1.761-5.209-5.165c-1.958-1.963-3.448-2.945-4.481-2.945
				c-1.109,0-1.669,0.823-1.669,2.468c0,3.126,3.427,8.297,10.28,15.514l1.75,1.867l0.897,1.08c0.27,0.2,0.409,0.403,0.409,0.602
				C257.676,118.615,257.59,118.735,257.43,118.735z"/>
		</g>
		<line fill="none" stroke="#333333" stroke-miterlimit="10" x1="199.373" y1="87.958" x2="199.373" y2="165.613"/>
	</g>
	
		<line fill="none" stroke="#333333" stroke-width="0.5" stroke-miterlimit="10" x1="261.299" y1="349.495" x2="138.3" y2="349.495"/>
</g>
<g>
</g>
<g>
</g>
<g>
</g>
<g>
</g>
<g>
</g>
<g>
</g>
<g>
</g>
<g>
</g>
<g>
</g>
<g>
</g>
<g>
</g>
</svg>
